STARTFONT 2.1
FONT -Monotype-Century Schoolbook-Regular-R-Normal--33-240-100-100-P-158-iso8859-9
SIZE 24 100 100
FONTBOUNDINGBOX 38 40 -5 -7

STARTPROPERTIES 24
FOUNDRY "Monotype"
FAMILY_NAME "Century Schoolbook"
WEIGHT_NAME "Regular"
SLANT "R"
SETWIDTH_NAME "Normal"
ADD_STYLE_NAME ""
PIXEL_SIZE 33
POINT_SIZE 240
RESOLUTION_X 100
RESOLUTION_Y 100
SPACING "P"
AVERAGE_WIDTH 158
CHARSET_REGISTRY "iso8859"
CHARSET_ENCODING "9"
FACE_NAME "Century Schoolbook ISO Latin5"
_DEC_DEVICE_FONTNAMES "PS=centuryschoolbook-lat5"
COPYRIGHT "Copyright (c) 1993 Monotype Typography Ltd."
CAP_HEIGHT 28
X_HEIGHT 18
WEIGHT 10
QUAD_WIDTH 20
DEFAULT_CHAR 160
FONT_DESCENT 7
FONT_ASCENT 33
ENDPROPERTIES

CHARS 191

STARTCHAR space
ENCODING 32
SWIDTH 278 0
DWIDTH 9 0
BBX 0 0 0 0
BITMAP
ENDCHAR

STARTCHAR exclam
ENCODING 33
SWIDTH 296 0
DWIDTH 10 0
BBX 4 25 3 0
BITMAP
60
F0
F0
F0
F0
F0
F0
60
60
60
60
60
60
60
20
20
20
00
00
00
00
60
F0
F0
60
ENDCHAR

STARTCHAR quotedbl
ENCODING 34
SWIDTH 389 0
DWIDTH 13 0
BBX 9 10 2 13
BITMAP
4100
E380
E380
E380
E380
E380
C180
4100
4100
4100
ENDCHAR

STARTCHAR numbersign
ENCODING 35
SWIDTH 556 0
DWIDTH 18 0
BBX 19 24 -1 0
BITMAP
018180
018180
018180
018380
030300
030300
030300
FFFFE0
FFFFE0
060600
060600
060600
060600
0E0C00
0C0C00
FFFFE0
FFFFE0
0C0C00
181800
181800
181800
181800
183800
303000
ENDCHAR

STARTCHAR dollar
ENCODING 36
SWIDTH 556 0
DWIDTH 18 0
BBX 15 28 2 -4
BITMAP
0100
07C0
1D70
2118
411C
C11C
C13C
C118
E100
7100
7F00
3F80
1FE0
07F0
01F8
013C
010E
6106
F106
F106
E106
410C
6118
1FF0
0100
0100
0100
0100
ENDCHAR

STARTCHAR percent
ENCODING 37
SWIDTH 833 0
DWIDTH 27 0
BBX 24 23 2 0
BITMAP
1C0000
630018
638030
C18020
C18040
C18080
C18180
C18300
C18200
638400
630C00
1C1800
00107C
0020C6
0061C7
00C183
008183
010183
030183
060183
0401C7
0800C6
180038
ENDCHAR

STARTCHAR ampersand
ENCODING 38
SWIDTH 815 0
DWIDTH 27 0
BBX 23 24 2 0
BITMAP
01F800
030C00
060E00
0E0600
0E0600
0E0600
0F0C00
071800
07B000
03C000
0FC3FE
19C078
31E030
60F060
60F060
E07840
E03CC0
E01F80
F01F02
F00F82
7807C6
3E1BFE
1FF1FC
078070
ENDCHAR

STARTCHAR quoteright
ENCODING 39
SWIDTH 204 0
DWIDTH 7 0
BBX 4 9 1 15
BITMAP
E0
F0
F0
F0
10
30
20
40
80
ENDCHAR

STARTCHAR parenleft
ENCODING 40
SWIDTH 333 0
DWIDTH 11 0
BBX 9 30 2 -6
BITMAP
0180
0300
0600
0C00
0C00
1800
3800
3000
7000
7000
E000
E000
E000
E000
E000
E000
E000
E000
E000
6000
7000
7000
3000
3800
1800
0C00
0400
0600
0300
0180
ENDCHAR

STARTCHAR parenright
ENCODING 41
SWIDTH 333 0
DWIDTH 11 0
BBX 9 30 0 -6
BITMAP
C000
6000
3000
1800
1800
0C00
0E00
0600
0700
0700
0380
0380
0380
0380
0380
0380
0380
0380
0380
0300
0700
0700
0600
0E00
0C00
1800
1800
3000
6000
C000
ENDCHAR

STARTCHAR asterisk
ENCODING 42
SWIDTH 500 0
DWIDTH 17 0
BBX 13 13 2 12
BITMAP
0700
0700
0700
0700
E238
F278
FEF8
0200
0D00
1DC0
38E0
38E0
3040
ENDCHAR

STARTCHAR plus
ENCODING 43
SWIDTH 606 0
DWIDTH 20 0
BBX 18 18 1 2
BITMAP
00C000
00C000
00C000
00C000
00C000
00C000
00C000
00C000
FFFFC0
FFFFC0
00C000
00C000
00C000
00C000
00C000
00C000
00C000
00C000
ENDCHAR

STARTCHAR comma
ENCODING 44
SWIDTH 278 0
DWIDTH 9 0
BBX 4 9 2 -5
BITMAP
E0
F0
F0
70
10
30
20
40
80
ENDCHAR

STARTCHAR minus
ENCODING 45
SWIDTH 606 0
DWIDTH 20 0
BBX 18 2 1 10
BITMAP
FFFFC0
FFFFC0
ENDCHAR

STARTCHAR period
ENCODING 46
SWIDTH 278 0
DWIDTH 9 0
BBX 4 4 3 0
BITMAP
60
F0
F0
60
ENDCHAR

STARTCHAR slash
ENCODING 47
SWIDTH 278 0
DWIDTH 9 0
BBX 9 24 0 0
BITMAP
0180
0180
0380
0300
0300
0300
0600
0600
0600
0C00
0C00
0C00
1800
1800
1800
3800
3000
3000
3000
6000
6000
6000
C000
C000
ENDCHAR

STARTCHAR zero
ENCODING 48
SWIDTH 556 0
DWIDTH 18 0
BBX 15 23 2 0
BITMAP
07C0
1C70
3838
3018
701C
600C
600E
E00E
E00E
E00E
E00E
E00E
E00E
E00E
E00E
E00E
600C
700C
701C
3018
3838
1C70
07C0
ENDCHAR

STARTCHAR one
ENCODING 49
SWIDTH 556 0
DWIDTH 18 0
BBX 12 22 3 0
BITMAP
0300
0F00
FF00
0F00
0700
0700
0700
0700
0700
0700
0700
0700
0700
0700
0700
0700
0700
0700
0700
0700
0700
7FF0
ENDCHAR

STARTCHAR two
ENCODING 50
SWIDTH 556 0
DWIDTH 18 0
BBX 15 23 1 0
BITMAP
07F0
1C38
301C
200E
600E
700E
7C0E
780E
381E
001C
0038
0078
0070
00C0
0180
0300
0602
0C02
1802
3006
3FFE
7FFE
FFFE
ENDCHAR

STARTCHAR three
ENCODING 51
SWIDTH 556 0
DWIDTH 18 0
BBX 15 23 2 0
BITMAP
0FE0
1870
2038
701C
781C
781C
301C
001C
0038
0060
0FE0
0030
001C
001C
000E
700E
F00E
F00E
E00E
C01C
601C
3078
0FE0
ENDCHAR

STARTCHAR four
ENCODING 52
SWIDTH 556 0
DWIDTH 18 0
BBX 16 23 2 0
BITMAP
0030
0030
0070
00F0
00F0
01B0
0370
0270
0470
0C70
0870
1070
3070
6070
4070
8070
FFFF
0070
0070
0070
0070
0070
03FE
ENDCHAR

STARTCHAR five
ENCODING 53
SWIDTH 556 0
DWIDTH 18 0
BBX 14 23 2 0
BITMAP
3008
3FF0
3FF0
2FC0
2000
2000
2000
2000
2FC0
38F0
6078
4038
401C
001C
001C
601C
F01C
F01C
E01C
C038
6030
30E0
1F80
ENDCHAR

STARTCHAR six
ENCODING 54
SWIDTH 556 0
DWIDTH 18 0
BBX 15 23 2 0
BITMAP
03F0
0E18
1C1C
183C
303C
701C
7000
6000
E000
E1E0
E7F8
EC3C
F01C
F00E
F00E
E00E
E00E
600E
700C
301C
3818
1C30
07E0
ENDCHAR

STARTCHAR seven
ENCODING 55
SWIDTH 556 0
DWIDTH 18 0
BBX 14 23 3 0
BITMAP
7FFC
FFFC
FFF8
C008
8010
8030
8020
0060
0040
00C0
00C0
0180
0180
0180
0380
0380
0780
0700
0700
0700
0700
0700
0600
ENDCHAR

STARTCHAR eight
ENCODING 56
SWIDTH 556 0
DWIDTH 18 0
BBX 15 23 2 0
BITMAP
07E0
1838
3018
600C
600C
600C
700C
7018
7C10
3FE0
1FF0
07F8
18FC
703E
600E
C006
C006
C006
C006
E00C
600C
3838
0FE0
ENDCHAR

STARTCHAR nine
ENCODING 57
SWIDTH 556 0
DWIDTH 18 0
BBX 15 23 2 0
BITMAP
0FC0
1C70
3038
701C
E01C
E00C
E00E
E00E
E00E
F01E
701E
782E
3FCE
0F0E
000E
000E
000C
301C
7818
7838
7030
38E0
1F80
ENDCHAR

STARTCHAR colon
ENCODING 58
SWIDTH 278 0
DWIDTH 9 0
BBX 4 16 3 0
BITMAP
60
F0
F0
60
00
00
00
00
00
00
00
00
60
F0
F0
60
ENDCHAR

STARTCHAR semicolon
ENCODING 59
SWIDTH 278 0
DWIDTH 9 0
BBX 4 21 3 -5
BITMAP
60
F0
F0
60
00
00
00
00
00
00
00
00
E0
F0
F0
70
10
30
20
40
80
ENDCHAR

STARTCHAR less
ENCODING 60
SWIDTH 606 0
DWIDTH 20 0
BBX 18 17 1 3
BITMAP
000040
0001C0
0007C0
003F00
00F800
03E000
1F8000
7C0000
E00000
F80000
3E0000
0FC000
01F000
007C00
001F80
0003C0
0000C0
ENDCHAR

STARTCHAR equal
ENCODING 61
SWIDTH 606 0
DWIDTH 20 0
BBX 18 10 1 6
BITMAP
FFFFC0
FFFFC0
000000
000000
000000
000000
000000
000000
FFFFC0
FFFFC0
ENDCHAR

STARTCHAR greater
ENCODING 62
SWIDTH 606 0
DWIDTH 20 0
BBX 18 17 1 3
BITMAP
800000
E00000
F80000
3F0000
0FC000
01F000
007E00
000F80
0001C0
0007C0
001F00
00FC00
03E000
0F8000
7E0000
F00000
C00000
ENDCHAR

STARTCHAR question
ENCODING 63
SWIDTH 444 0
DWIDTH 15 0
BBX 12 25 1 0
BITMAP
1F80
31C0
60E0
E070
E070
F070
7070
0070
00E0
00E0
01C0
0380
0300
0600
0400
0400
0400
0000
0000
0000
0000
0C00
1E00
1E00
0C00
ENDCHAR

STARTCHAR at
ENCODING 64
SWIDTH 737 0
DWIDTH 24 0
BBX 23 25 1 -2
BITMAP
007F00
0380C0
060020
080010
100008
300008
601CC4
406384
40C184
C1C184
C18104
830304
830304
860708
860608
860E10
C71610
C7E662
438786
600004
300008
100010
0C0060
0301C0
00FE00
ENDCHAR

STARTCHAR A
ENCODING 65
SWIDTH 722 0
DWIDTH 24 0
BBX 24 24 0 0
BITMAP
001800
001800
003C00
003C00
002E00
006E00
004E00
00CF00
008700
008780
018380
010380
0303C0
0201C0
0201C0
07FFE0
0400E0
0C00F0
080070
080070
180078
180038
7C007C
FF01FF
ENDCHAR

STARTCHAR B
ENCODING 66
SWIDTH 722 0
DWIDTH 24 0
BBX 21 24 2 0
BITMAP
FFFF00
1F03C0
0E01E0
0E00F0
0E00F0
0E00F0
0E00F0
0E00F0
0E00E0
0E01C0
0E0280
0FFF00
0E03C0
0E00E0
0E00F0
0E0078
0E0078
0E0078
0E0078
0E0078
0E0070
0E00E0
1F03C0
FFFF00
ENDCHAR

STARTCHAR C
ENCODING 67
SWIDTH 722 0
DWIDTH 24 0
BBX 20 24 2 0
BITMAP
01FC20
078760
0E01E0
1C00E0
3C00E0
380060
780060
700020
700020
F00000
F00000
F00000
F00000
F00000
F00000
F00000
700010
780030
780020
3C0060
1C0040
0E0080
078700
01FE00
ENDCHAR

STARTCHAR D
ENCODING 68
SWIDTH 778 0
DWIDTH 26 0
BBX 23 24 1 0
BITMAP
FFFF00
1F03C0
0E00E0
0E0070
0E0038
0E003C
0E003C
0E001C
0E001E
0E001E
0E001E
0E001E
0E001E
0E001E
0E001E
0E001E
0E001C
0E003C
0E003C
0E0038
0E0070
0E00E0
1F03C0
FFFF00
ENDCHAR

STARTCHAR E
ENCODING 69
SWIDTH 722 0
DWIDTH 24 0
BBX 20 24 2 0
BITMAP
FFFFE0
0E01E0
0E0070
0E0070
0E0030
0E0030
0E0430
0E0410
0E0400
0E0C00
0E1C00
0FFC00
0E1C00
0E0C00
0E0400
0E0410
0E0410
0E0010
0E0010
0E0030
0E0070
0E00F0
1F01F0
FFFFF0
ENDCHAR

STARTCHAR F
ENCODING 70
SWIDTH 667 0
DWIDTH 22 0
BBX 20 24 2 0
BITMAP
FFFFE0
0E01E0
0E00E0
0E0060
0E0030
0E0030
0E0430
0E0430
0E0400
0E0C00
0E1C00
0FFC00
0E1C00
0E0C00
0E0400
0E0400
0E0400
0E0000
0E0000
0E0000
0E0000
0E0000
0F0000
FFE000
ENDCHAR

STARTCHAR G
ENCODING 71
SWIDTH 778 0
DWIDTH 26 0
BBX 23 24 2 0
BITMAP
01FC20
078760
0E01F0
1C00F0
380070
380070
780030
700030
F00010
F00000
F00000
F00000
F00000
F007FE
F00070
F00070
780070
780070
380070
3C0070
1C00D0
0E01B0
038710
00FC10
ENDCHAR

STARTCHAR H
ENCODING 72
SWIDTH 833 0
DWIDTH 27 0
BBX 25 24 1 0
BITMAP
FFE1FF80
1E003C00
0E003800
0E003800
0E003800
0E003800
0E003800
0E003800
0E003800
0E003800
0E003800
0FFFF800
0E003800
0E003800
0E003800
0E003800
0E003800
0E003800
0E003800
0E003800
0E003800
0E003800
1F007C00
FFE1FF80
ENDCHAR

STARTCHAR I
ENCODING 73
SWIDTH 407 0
DWIDTH 13 0
BBX 11 24 1 0
BITMAP
FFE0
0E00
0E00
0E00
0E00
0E00
0E00
0E00
0E00
0E00
0E00
0E00
0E00
0E00
0E00
0E00
0E00
0E00
0E00
0E00
0E00
0E00
0F00
FFE0
ENDCHAR

STARTCHAR J
ENCODING 74
SWIDTH 556 0
DWIDTH 18 0
BBX 17 24 0 0
BITMAP
01FF80
003E00
001C00
001C00
001C00
001C00
001C00
001C00
001C00
001C00
001C00
001C00
001C00
001C00
381C00
7C1C00
FC1C00
FC1C00
F81C00
C03C00
403C00
607800
30F000
0FC000
ENDCHAR

STARTCHAR K
ENCODING 75
SWIDTH 778 0
DWIDTH 26 0
BBX 25 24 1 0
BITMAP
FFE3FF00
0F00F800
0E007000
0E00C000
0E00C000
0E018000
0E030000
0E060000
0E0C0000
0E180000
0E3C0000
0E7E0000
0EDE0000
0F8F0000
0F078000
0E078000
0E03C000
0E01E000
0E01E000
0E00F000
0E007800
0E003800
1F007E00
FFE3FF80
ENDCHAR

STARTCHAR L
ENCODING 76
SWIDTH 667 0
DWIDTH 22 0
BBX 20 24 1 0
BITMAP
FFE000
0F0000
0E0000
0E0000
0E0000
0E0000
0E0000
0E0000
0E0000
0E0000
0E0000
0E0000
0E0000
0E0000
0E0000
0E0010
0E0010
0E0010
0E0030
0E0030
0E0070
0E00F0
1F01F0
FFFFF0
ENDCHAR

STARTCHAR M
ENCODING 77
SWIDTH 944 0
DWIDTH 31 0
BBX 30 24 0 0
BITMAP
FF0003FC
1B8006C0
0B8005C0
0B8005C0
0BC00DC0
09C009C0
09E009C0
08E019C0
08E011C0
08F031C0
087031C0
087021C0
087861C0
083861C0
083C41C0
081CC1C0
081C81C0
081E81C0
080F81C0
080F01C0
080F01C0
1C0701C0
3E0603E0
FF861FFC
ENDCHAR

STARTCHAR N
ENCODING 78
SWIDTH 815 0
DWIDTH 27 0
BBX 25 24 1 0
BITMAP
FC00FF80
1E003E00
0F001C00
0F800800
0B800800
0BC00800
09E00800
08F00800
08F00800
08780800
083C0800
081E0800
081E0800
080F0800
08078800
08038800
0803C800
0801E800
0800F800
08007800
1C007800
1C003800
7F001800
FF801800
ENDCHAR

STARTCHAR O
ENCODING 79
SWIDTH 778 0
DWIDTH 26 0
BBX 22 24 2 0
BITMAP
01FE00
078780
0E01C0
1C00E0
380070
380070
780078
700038
F0003C
F0003C
F0003C
F0003C
F0003C
F0003C
F0003C
F0003C
700038
780078
380070
380070
1C00E0
0E01C0
078780
01FE00
ENDCHAR

STARTCHAR P
ENCODING 80
SWIDTH 667 0
DWIDTH 22 0
BBX 20 24 1 0
BITMAP
FFFF00
1F03C0
0E01E0
0E00E0
0E00F0
0E00F0
0E00F0
0E00F0
0E00F0
0E00E0
0E01C0
0E0780
0FFE00
0E0000
0E0000
0E0000
0E0000
0E0000
0E0000
0E0000
0E0000
0E0000
1F0000
FFE000
ENDCHAR

STARTCHAR Q
ENCODING 81
SWIDTH 778 0
DWIDTH 26 0
BBX 22 30 2 -6
BITMAP
01FE00
078780
0E01C0
1C00E0
380070
380070
780078
700038
F0003C
F0003C
F0003C
F0003C
F0003C
F0003C
F0003C
70F83C
718C78
7B0678
3A0370
3E0370
1E03E0
0F03C0
078780
01FFC0
0003C4
0001C4
0001E4
0001FC
0000F8
000070
ENDCHAR

STARTCHAR R
ENCODING 82
SWIDTH 722 0
DWIDTH 24 0
BBX 22 24 1 0
BITMAP
FFFF00
0F03C0
0E01E0
0E00E0
0E00F0
0E00F0
0E00F0
0E00F0
0E00E0
0E01C0
0E0780
0FFC00
0E0E00
0E0700
0E0380
0E0380
0E0380
0E03C0
0E03C0
0E01C4
0E01E4
0E01E4
1F00F8
FFE0F0
ENDCHAR

STARTCHAR S
ENCODING 83
SWIDTH 630 0
DWIDTH 21 0
BBX 17 24 2 0
BITMAP
0FC300
387700
601F00
600F00
C00700
C00300
C00300
E00300
F00100
7E0000
7FE000
3FFC00
0FFE00
00FF00
000F80
800380
800380
C00180
C00180
E00180
F00300
F80600
CE0C00
83F000
ENDCHAR

STARTCHAR T
ENCODING 84
SWIDTH 667 0
DWIDTH 22 0
BBX 21 24 1 0
BITMAP
7FFFF0
7870F0
707070
607030
607030
407018
C07018
C07018
C07018
007000
007000
007000
007000
007000
007000
007000
007000
007000
007000
007000
007000
007000
007800
07FF00
ENDCHAR

STARTCHAR U
ENCODING 85
SWIDTH 815 0
DWIDTH 27 0
BBX 26 24 1 0
BITMAP
FFE07FC0
0F001E00
0E000C00
0E000C00
0E000C00
0E000C00
0E000C00
0E000C00
0E000C00
0E000C00
0E000C00
0E000C00
0E000C00
0E000C00
0E000C00
0E000C00
0E000C00
0E000C00
0F000800
0F001800
07803800
03C07000
01FFC000
007F0000
ENDCHAR

STARTCHAR V
ENCODING 86
SWIDTH 722 0
DWIDTH 24 0
BBX 24 24 0 0
BITMAP
FFC1FF
3E003C
1C0018
1E0018
0E0030
0F0030
070020
070060
078060
0380C0
03C0C0
01C080
01C180
01E180
00E100
00F300
007300
007200
007E00
003C00
003C00
001C00
001800
000800
ENDCHAR

STARTCHAR W
ENCODING 87
SWIDTH 981 0
DWIDTH 32 0
BBX 31 24 1 0
BITMAP
FF3FF0FE
7807803C
38038038
3C038030
1C03C030
1C03C020
1C03C020
0E06E060
0E06E060
0E04E040
070CF0C0
070C70C0
07087080
03887980
03983980
03983900
03D03D00
01F01F00
01F01E00
01E01E00
00E00E00
00E00E00
00C00C00
00400400
ENDCHAR

STARTCHAR X
ENCODING 88
SWIDTH 704 0
DWIDTH 23 0
BBX 22 24 1 0
BITMAP
FF87F8
3E01E0
1C01C0
1E0180
0F0300
070300
078600
03C400
01CC00
01F800
00F000
007000
007800
007C00
00DE00
019E00
010F00
030780
060780
0403C0
0C01E0
1C00E0
7C01F0
FF87FC
ENDCHAR

STARTCHAR Y
ENCODING 89
SWIDTH 704 0
DWIDTH 23 0
BBX 24 24 0 0
BITMAP
FFE1FF
3E007C
1E0030
0F0030
070060
078060
03C0C0
01C0C0
01E180
00F180
007300
007B00
003E00
003C00
001C00
001C00
001C00
001C00
001C00
001C00
001C00
001C00
003E00
01FFC0
ENDCHAR

STARTCHAR Z
ENCODING 90
SWIDTH 611 0
DWIDTH 20 0
BBX 18 24 1 0
BITMAP
7FFFC0
7C0380
780780
700F00
600E00
601E00
401C00
403C00
007800
007000
00F000
01E000
01C000
03C000
038000
078040
0F00C0
0E00C0
1E00C0
3C01C0
3801C0
7803C0
F00FC0
FFFF80
ENDCHAR

STARTCHAR bracketleft
ENCODING 91
SWIDTH 333 0
DWIDTH 11 0
BBX 7 30 4 -6
BITMAP
FE
E0
E0
E0
E0
E0
E0
E0
E0
E0
E0
E0
E0
E0
E0
E0
E0
E0
E0
E0
E0
E0
E0
E0
E0
E0
E0
E0
E0
FE
ENDCHAR

STARTCHAR backslash
ENCODING 92
SWIDTH 606 0
DWIDTH 20 0
BBX 19 24 1 0
BITMAP
C00000
600000
600000
300000
180000
180000
0C0000
060000
070000
030000
018000
00C000
00C000
006000
003000
003800
001800
000C00
000600
000600
000300
000180
0001C0
0000E0
ENDCHAR

STARTCHAR bracketright
ENCODING 93
SWIDTH 333 0
DWIDTH 11 0
BBX 7 30 0 -6
BITMAP
FE
0E
0E
0E
0E
0E
0E
0E
0E
0E
0E
0E
0E
0E
0E
0E
0E
0E
0E
0E
0E
0E
0E
0E
0E
0E
0E
0E
0E
FE
ENDCHAR

STARTCHAR asciicircum
ENCODING 94
SWIDTH 606 0
DWIDTH 20 0
BBX 14 12 3 11
BITMAP
0100
0300
0780
0680
0CC0
0C40
1860
3030
3030
6018
6018
C00C
ENDCHAR

STARTCHAR underscore
ENCODING 95
SWIDTH 500 0
DWIDTH 17 0
BBX 17 2 0 -4
BITMAP
FFFF80
FFFF80
ENDCHAR

STARTCHAR quoteleft
ENCODING 96
SWIDTH 204 0
DWIDTH 7 0
BBX 4 9 1 15
BITMAP
10
20
40
C0
80
F0
F0
F0
60
ENDCHAR

STARTCHAR a
ENCODING 97
SWIDTH 556 0
DWIDTH 18 0
BBX 16 16 1 0
BITMAP
0FE0
1870
3038
7038
7838
3038
00F8
07B8
1C38
7038
6038
E038
E078
F0D8
7B9F
1E0E
ENDCHAR

STARTCHAR b
ENCODING 98
SWIDTH 556 0
DWIDTH 18 0
BBX 17 24 0 0
BITMAP
1C0000
FC0000
1C0000
1C0000
1C0000
1C0000
1C0000
1C0000
1CF800
1D9E00
1E0700
1E0700
1C0380
1C0380
1C0380
1C0380
1C0380
1C0380
1C0380
1C0300
1E0700
1E0600
1B1C00
10F800
ENDCHAR

STARTCHAR c
ENCODING 99
SWIDTH 444 0
DWIDTH 15 0
BBX 13 16 1 0
BITMAP
0FC0
1C70
3830
7078
7078
E030
E000
E000
E000
E000
E000
7008
7018
3810
3C60
0FC0
ENDCHAR

STARTCHAR d
ENCODING 100
SWIDTH 574 0
DWIDTH 19 0
BBX 17 24 2 0
BITMAP
001C00
00FC00
001C00
001C00
001C00
001C00
001C00
001C00
0F9C00
38DC00
302C00
703C00
E01C00
E01C00
E01C00
E01C00
E01C00
E01C00
E01C00
703C00
702C00
385C00
1F9F80
060000
ENDCHAR

STARTCHAR e
ENCODING 101
SWIDTH 500 0
DWIDTH 17 0
BBX 14 16 1 0
BITMAP
0FC0
1860
3030
7038
6018
E01C
E03C
FFFC
E000
E000
E000
7004
7008
3818
1C70
0FC0
ENDCHAR

STARTCHAR f
ENCODING 102
SWIDTH 333 0
DWIDTH 11 0
BBX 13 25 0 0
BITMAP
01F0
0718
0E38
0C38
0C38
1C00
1C00
1C00
1C00
7FC0
1C00
1C00
1C00
1C00
1C00
1C00
1C00
1C00
1C00
1C00
1C00
1C00
1C00
1E00
FFC0
ENDCHAR

STARTCHAR g
ENCODING 103
SWIDTH 537 0
DWIDTH 18 0
BBX 16 23 2 -6
BITMAP
0006
1F9F
38F7
7072
E038
E038
E038
E038
6030
7070
18E0
3F80
4000
C000
E000
7FF0
1FF8
301C
E00C
C00C
C008
7030
3FC0
ENDCHAR

STARTCHAR h
ENCODING 104
SWIDTH 611 0
DWIDTH 20 0
BBX 19 24 1 0
BITMAP
1C0000
FC0000
1C0000
1C0000
1C0000
1C0000
1C0000
1C0000
1C7800
1DFC00
1F0E00
1E0700
1C0700
1C0700
1C0700
1C0700
1C0700
1C0700
1C0700
1C0700
1C0700
1C0700
1C0700
7F1FE0
ENDCHAR

STARTCHAR i
ENCODING 105
SWIDTH 315 0
DWIDTH 10 0
BBX 9 24 1 0
BITMAP
1800
3C00
3C00
1800
0000
0000
0000
0000
3C00
FC00
1C00
1C00
1C00
1C00
1C00
1C00
1C00
1C00
1C00
1C00
1C00
1C00
1C00
FF80
ENDCHAR

STARTCHAR j
ENCODING 106
SWIDTH 296 0
DWIDTH 10 0
BBX 8 30 -1 -6
BITMAP
06
0F
0F
06
00
00
00
00
0F
3F
07
07
07
07
07
07
07
07
07
07
07
07
07
07
07
06
66
E4
F8
70
ENDCHAR

STARTCHAR k
ENCODING 107
SWIDTH 593 0
DWIDTH 20 0
BBX 18 24 1 0
BITMAP
1C0000
FC0000
1C0000
1C0000
1C0000
1C0000
1C0000
1C0000
1C7F80
1C3F00
1C1C00
1C1800
1C2000
1C4000
1DC000
1DE000
1E7000
1C7000
1C3800
1C1C00
1C1C00
1C0E00
1C0F00
FF3FC0
ENDCHAR

STARTCHAR l
ENCODING 108
SWIDTH 315 0
DWIDTH 10 0
BBX 9 24 1 0
BITMAP
1C00
FC00
1C00
1C00
1C00
1C00
1C00
1C00
1C00
1C00
1C00
1C00
1C00
1C00
1C00
1C00
1C00
1C00
1C00
1C00
1C00
1C00
1C00
FF80
ENDCHAR

STARTCHAR m
ENCODING 109
SWIDTH 889 0
DWIDTH 29 0
BBX 26 16 2 0
BITMAP
38603800
F9F87C00
7BFCFE00
3E1D0E00
3C0F0700
380E0700
380E0700
380E0700
380E0700
380E0700
380E0700
380E0700
380E0700
380E0700
380E0700
FF7F9FC0
ENDCHAR

STARTCHAR n
ENCODING 110
SWIDTH 611 0
DWIDTH 20 0
BBX 19 16 1 0
BITMAP
F87800
3DFE00
1F0E00
1E0700
1C0700
1C0700
1C0700
1C0700
1C0700
1C0700
1C0700
1C0700
1C0700
1C0700
1C0700
7F1FE0
ENDCHAR

STARTCHAR o
ENCODING 111
SWIDTH 500 0
DWIDTH 17 0
BBX 14 16 1 0
BITMAP
0FC0
1860
3030
7038
6018
E01C
E01C
E01C
E01C
E01C
E01C
6018
7038
3030
1860
0FC0
ENDCHAR

STARTCHAR p
ENCODING 112
SWIDTH 574 0
DWIDTH 19 0
BBX 16 22 1 -6
BITMAP
70E0
FBF8
3E1C
3C0E
3C06
3807
3807
3807
3807
3807
3807
3807
3C0E
380C
3B3C
39F0
3800
3800
3800
3800
3800
FF00
ENDCHAR

STARTCHAR q
ENCODING 113
SWIDTH 556 0
DWIDTH 18 0
BBX 16 22 2 -6
BITMAP
0F84
1C6C
303C
701C
601C
E01C
E01C
E01C
E01C
E01C
E01C
701C
703C
382C
3CDC
0F9C
001C
001C
001C
001C
001C
00FF
ENDCHAR

STARTCHAR r
ENCODING 114
SWIDTH 444 0
DWIDTH 15 0
BBX 13 16 1 0
BITMAP
3820
F8F8
19B8
1938
1A38
1A00
1E00
1C00
1C00
1C00
1C00
1C00
1C00
1C00
1C00
FF80
ENDCHAR

STARTCHAR s
ENCODING 115
SWIDTH 463 0
DWIDTH 15 0
BBX 12 16 2 0
BITMAP
1F60
61E0
40E0
C060
C020
E000
7C00
7FC0
1FE0
03F0
8070
C030
C030
E020
F0E0
8F80
ENDCHAR

STARTCHAR t
ENCODING 116
SWIDTH 389 0
DWIDTH 13 0
BBX 11 22 1 0
BITMAP
0800
0800
1800
1800
3800
7800
FFC0
3800
3800
3800
3800
3800
3800
3800
3800
3800
3820
3820
3840
3C40
1F80
0700
ENDCHAR

STARTCHAR u
ENCODING 117
SWIDTH 611 0
DWIDTH 20 0
BBX 18 16 2 0
BITMAP
781E00
F83E00
380E00
380E00
380E00
380E00
380E00
380E00
380E00
380E00
380E00
380E00
381E00
1C3600
0FCFC0
070000
ENDCHAR

STARTCHAR v
ENCODING 118
SWIDTH 537 0
DWIDTH 18 0
BBX 17 16 0 0
BITMAP
FF1F80
3C0F00
380600
1C0600
1C0400
0E0C00
0E0800
071800
071000
033000
03A000
03A000
01E000
01C000
00C000
008000
ENDCHAR

STARTCHAR w
ENCODING 119
SWIDTH 778 0
DWIDTH 26 0
BBX 24 15 1 1
BITMAP
FEFF3F
783C0E
381C0C
381C08
183C18
1C3618
1C2E10
0E6730
0E4730
064320
07C3E0
0783C0
0381C0
0381C0
010080
ENDCHAR

STARTCHAR x
ENCODING 120
SWIDTH 537 0
DWIDTH 18 0
BBX 17 16 0 0
BITMAP
FF3F00
7C1E00
1C0800
1E1800
0E3000
076000
03C000
03C000
01E000
036000
027000
047800
0C3C00
181C00
381E00
FE7F80
ENDCHAR

STARTCHAR y
ENCODING 121
SWIDTH 537 0
DWIDTH 18 0
BBX 17 22 0 -6
BITMAP
FF1F80
780700
380600
1C0400
1C0400
0E0C00
0E0800
071800
071000
079000
03A000
03A000
01E000
01C000
00C000
008000
018000
010000
630000
E20000
EC0000
780000
ENDCHAR

STARTCHAR z
ENCODING 122
SWIDTH 481 0
DWIDTH 16 0
BBX 13 16 2 0
BITMAP
FFF0
E070
C0E0
C1E0
C1C0
8380
0780
0700
0E00
1E00
1C18
3818
7818
7030
E070
FFF0
ENDCHAR

STARTCHAR braceleft
ENCODING 123
SWIDTH 333 0
DWIDTH 11 0
BBX 9 30 2 -6
BITMAP
0380
0400
0C00
1800
1800
1800
1C00
1C00
1C00
0C00
0C00
0C00
1800
1000
E000
6000
1000
1800
0C00
0C00
1C00
1C00
1C00
1C00
1C00
1800
1800
0C00
0400
0380
ENDCHAR

STARTCHAR bar
ENCODING 124
SWIDTH 606 0
DWIDTH 20 0
BBX 2 28 9 -4
BITMAP
C0
C0
C0
C0
C0
C0
C0
C0
C0
C0
C0
C0
C0
C0
C0
C0
C0
C0
C0
C0
C0
C0
C0
C0
C0
C0
C0
C0
ENDCHAR

STARTCHAR braceright
ENCODING 125
SWIDTH 333 0
DWIDTH 11 0
BBX 9 30 0 -6
BITMAP
E000
1000
1800
0C00
0C00
1C00
1C00
1C00
1C00
1C00
1800
1800
0C00
0600
0180
0300
0400
0C00
1800
1800
1C00
1C00
1C00
1C00
0C00
0C00
0C00
1800
1000
E000
ENDCHAR

STARTCHAR asciitilde
ENCODING 126
SWIDTH 606 0
DWIDTH 20 0
BBX 18 5 1 9
BITMAP
3E0040
7F8040
43F080
C07F80
801E00
ENDCHAR

STARTCHAR space
ENCODING 160
SWIDTH 278 0
DWIDTH 11 0
BBX 0 0 0 0
BITMAP
ENDCHAR

STARTCHAR exclamdown
ENCODING 161
SWIDTH 296 0
DWIDTH 10 0
BBX 4 25 3 -6
BITMAP
60
F0
F0
60
00
00
00
20
20
20
20
60
60
60
60
60
60
60
F0
F0
F0
F0
F0
F0
60
ENDCHAR

STARTCHAR cent
ENCODING 162
SWIDTH 556 0
DWIDTH 18 0
BBX 14 30 2 -6
BITMAP
0010
0030
0020
0020
0060
0040
0040
0040
03C0
0F70
3898
319C
713C
F138
E100
E300
E200
E200
E600
F604
740C
3C08
1E38
0FE0
0800
0800
1800
1000
1000
3000
ENDCHAR

STARTCHAR sterling
ENCODING 163
SWIDTH 556 0
DWIDTH 18 0
BBX 17 23 0 0
BITMAP
00F800
038600
070300
060700
0E0F00
0E0F00
0E0600
0F0000
0F0000
070000
078000
7FFC00
038000
038000
018000
018000
018000
7D8080
CF0180
81E100
83FF00
C67E00
783C00
ENDCHAR

STARTCHAR currency
ENCODING 164
SWIDTH 606 0
DWIDTH 20 0
BBX 17 17 1 2
BITMAP
200100
E3E380
7FFF00
3C1E00
380E00
300600
600300
600300
600300
600300
700300
300600
380E00
3C1E00
FFFB80
63E300
200100
ENDCHAR

STARTCHAR yen
ENCODING 165
SWIDTH 704 0
DWIDTH 23 0
BBX 22 22 1 0
BITMAP
FFC3FC
3E00F0
1E0060
0E0040
0F00C0
078180
038180
03C300
01E200
00E600
007400
3FFFF0
003800
003800
003800
003800
3FFFF0
003800
003800
003800
003800
03FF80
ENDCHAR

STARTCHAR brokenbar
ENCODING 166
SWIDTH 606 0
DWIDTH 20 0
BBX 2 28 9 -4
BITMAP
C0
C0
C0
C0
C0
C0
C0
C0
C0
C0
00
00
00
00
00
00
00
00
00
C0
C0
C0
C0
C0
C0
C0
C0
C0
ENDCHAR

STARTCHAR section
ENCODING 167
SWIDTH 500 0
DWIDTH 17 0
BBX 12 31 2 -6
BITMAP
0F80
3860
30E0
60E0
60E0
7000
7000
3800
3C00
1E00
3700
67C0
43C0
C1E0
C0F0
E070
F030
7830
3C20
3E60
0FC0
0780
03C0
01E0
00E0
0060
7060
7060
70C0
31C0
1F00
ENDCHAR

STARTCHAR dieresis
ENCODING 168
SWIDTH 333 0
DWIDTH 11 0
BBX 9 3 1 19
BITMAP
E380
E380
E380
ENDCHAR

STARTCHAR copyright
ENCODING 169
SWIDTH 737 0
DWIDTH 24 0
BBX 23 23 1 1
BITMAP
00FE00
038180
0C0060
180030
307E98
21C188
430084
4700C4
C60042
8E0002
8E0002
8E0002
8E0002
8E0002
860002
470044
430084
21C308
307E18
180030
0C0060
038180
00FE00
ENDCHAR

STARTCHAR ordfeminine
ENCODING 170
SWIDTH 334 0
DWIDTH 11 0
BBX 10 9 1 15
BITMAP
3E00
4300
E300
4700
3B00
E300
C300
C700
79C0
ENDCHAR

STARTCHAR guillemotleft
ENCODING 171
SWIDTH 426 0
DWIDTH 14 0
BBX 13 14 0 2
BITMAP
0618
0C18
1C30
1870
38E0
70E0
E1C0
F1C0
70E0
3860
1870
1C30
0C18
0618
ENDCHAR

STARTCHAR logicalnot
ENCODING 172
SWIDTH 606 0
DWIDTH 20 0
BBX 18 10 1 6
BITMAP
FFFFC0
FFFFC0
0000C0
0000C0
0000C0
0000C0
0000C0
0000C0
0000C0
0000C0
ENDCHAR

STARTCHAR hyphen
ENCODING 173
SWIDTH 333 0
DWIDTH 11 0
BBX 7 2 2 7
BITMAP
FE
FE
ENDCHAR

STARTCHAR registered
ENCODING 174
SWIDTH 737 0
DWIDTH 24 0
BBX 23 23 0 1
BITMAP
00FE00
0301C0
0C0060
180010
37FC08
21870C
418304
418384
818382
818302
818702
81F802
819C02
818C02
C18E02
418704
418304
21C18C
37E1C8
180010
0C0060
0381C0
00FE00
ENDCHAR

STARTCHAR macron
ENCODING 175
SWIDTH 333 0
DWIDTH 11 0
BBX 11 2 0 20
BITMAP
FFE0
FFE0
ENDCHAR

STARTCHAR degree
ENCODING 176
SWIDTH 400 0
DWIDTH 13 0
BBX 10 10 2 13
BITMAP
1E00
7F80
6180
C0C0
C0C0
C0C0
C0C0
6180
3F80
1E00
ENDCHAR

STARTCHAR plusminus
ENCODING 177
SWIDTH 606 0
DWIDTH 20 0
BBX 18 22 1 0
BITMAP
00C000
00C000
00C000
00C000
00C000
00C000
00C000
00C000
FFFFC0
FFFFC0
00C000
00C000
00C000
00C000
00C000
00C000
00C000
00C000
000000
000000
FFFFC0
FFFFC0
ENDCHAR

STARTCHAR twosuperior
ENCODING 178
SWIDTH 333 0
DWIDTH 11 0
BBX 8 12 1 11
BITMAP
3C
47
C3
E3
63
06
0C
08
11
21
7F
FF
ENDCHAR

STARTCHAR threesuperior
ENCODING 179
SWIDTH 333 0
DWIDTH 11 0
BBX 8 12 2 11
BITMAP
3C
C3
C3
43
02
3C
07
03
C3
C3
C6
3C
ENDCHAR

STARTCHAR acute
ENCODING 180
SWIDTH 333 0
DWIDTH 11 0
BBX 7 6 3 18
BITMAP
0E
1E
1C
38
60
C0
ENDCHAR

STARTCHAR mu
ENCODING 181
SWIDTH 611 0
DWIDTH 20 0
BBX 16 23 3 -7
BITMAP
7038
7038
7038
7038
7038
7038
7038
7038
7038
7038
7038
7038
7079
78D9
7F9E
5E1C
4000
4000
E000
E000
E000
E000
4000
ENDCHAR

STARTCHAR paragraph
ENCODING 182
SWIDTH 606 0
DWIDTH 20 0
BBX 16 30 2 -6
BITMAP
0FFF
3F88
7F88
FF88
FF88
FF88
FF88
FF88
FF88
7F88
7F88
1F88
0388
0088
0088
0088
0088
0088
0088
0088
0088
0088
0088
0088
0088
0088
0088
0088
0088
0088
ENDCHAR

STARTCHAR periodcentered
ENCODING 183
SWIDTH 278 0
DWIDTH 9 0
BBX 4 4 3 10
BITMAP
60
F0
F0
60
ENDCHAR

STARTCHAR cedilla
ENCODING 184
SWIDTH 333 0
DWIDTH 11 0
BBX 6 6 2 -6
BITMAP
20
38
1C
1C
38
F0
ENDCHAR

STARTCHAR onesuperior
ENCODING 185
SWIDTH 333 0
DWIDTH 11 0
BBX 7 12 2 11
BITMAP
08
F8
38
18
18
18
18
18
18
18
18
7E
ENDCHAR

STARTCHAR ordmasculine
ENCODING 186
SWIDTH 300 0
DWIDTH 10 0
BBX 9 9 0 15
BITMAP
3E00
6300
C180
C180
C180
C180
C180
6300
3E00
ENDCHAR

STARTCHAR guillemotright
ENCODING 187
SWIDTH 426 0
DWIDTH 14 0
BBX 13 14 0 2
BITMAP
8300
C180
61C0
70C0
30E0
3870
1C38
1C78
3870
30E0
70C0
61C0
C180
8300
ENDCHAR

STARTCHAR onequarter
ENCODING 188
SWIDTH 834 0
DWIDTH 28 0
BBX 22 23 2 0
BITMAP
180018
F80010
180020
180060
1800C0
180080
180180
180300
180200
180400
180C00
7E0800
001030
003030
006070
0040B0
00C130
018230
010430
0207FC
060030
040030
0800FC
ENDCHAR

STARTCHAR onehalf
ENCODING 189
SWIDTH 834 0
DWIDTH 28 0
BBX 22 23 2 0
BITMAP
180030
F80060
180040
1800C0
180180
180100
180300
180600
180400
180800
7E1800
0010F8
00211C
00630C
00438C
00838C
018018
030030
020060
0600C4
0C0184
0801FC
1803FC
ENDCHAR

STARTCHAR threequarters
ENCODING 190
SWIDTH 834 0
DWIDTH 28 0
BBX 21 23 3 0
BITMAP
3C0000
C30030
C30060
4300C0
020080
3C0100
070300
030200
C30400
C30C00
C60800
3C1020
003060
0060E0
0040E0
00C160
018260
010460
020860
060FF8
040060
080060
1801F8
ENDCHAR

STARTCHAR questiondown
ENCODING 191
SWIDTH 444 0
DWIDTH 15 0
BBX 12 25 1 -6
BITMAP
0300
0780
0780
0300
0000
0000
0000
0200
0200
0200
0200
0600
0C00
1C00
3800
7000
7000
E000
E0E0
E0F0
E070
E030
7060
38C0
1F80
ENDCHAR

STARTCHAR Agrave
ENCODING 192
SWIDTH 722 0
DWIDTH 24 0
BBX 24 32 0 0
BITMAP
00C000
00E000
007000
003800
001800
000400
000000
000000
001800
001800
003C00
003C00
002E00
006E00
004E00
00CF00
008700
008780
018380
010380
0303C0
0201C0
0201C0
07FFE0
0400E0
0C00F0
080070
080070
180078
180038
7C007C
FF01FF
ENDCHAR

STARTCHAR Aacute
ENCODING 193
SWIDTH 722 0
DWIDTH 24 0
BBX 24 32 0 0
BITMAP
000700
000700
000E00
001C00
003000
006000
000000
000000
001800
001800
003C00
003C00
002E00
006E00
004E00
00CF00
008700
008780
018380
010380
0303C0
0201C0
0201C0
07FFE0
0400E0
0C00F0
080070
080070
180078
180038
7C007C
FF01FF
ENDCHAR

STARTCHAR Acircumflex
ENCODING 194
SWIDTH 722 0
DWIDTH 24 0
BBX 24 32 0 0
BITMAP
001800
003C00
007400
006600
018300
000000
000000
000000
001800
001800
003C00
003C00
002E00
006E00
004E00
00CF00
008700
008780
018380
010380
0303C0
0201C0
0201C0
07FFE0
0400E0
0C00F0
080070
080070
180078
180038
7C007C
FF01FF
ENDCHAR

STARTCHAR Atilde
ENCODING 195
SWIDTH 722 0
DWIDTH 24 0
BBX 24 31 0 0
BITMAP
000080
00F880
01FF80
031F00
000000
000000
000000
001800
001800
003C00
003C00
002E00
006E00
004E00
00CF00
008700
008780
018380
010380
0303C0
0201C0
0201C0
07FFE0
0400E0
0C00F0
080070
080070
180078
180038
7C007C
FF01FF
ENDCHAR

STARTCHAR Adieresis
ENCODING 196
SWIDTH 722 0
DWIDTH 24 0
BBX 25 30 -1 0
BITMAP
00E38000
00E38000
00E38000
00000000
00000000
00000000
000C0000
001C0000
001C0000
001E0000
00360000
002E0000
00670000
00470000
00478000
00C38000
00838000
0183C000
0101C000
0101E000
0300E000
03FFE000
0600F000
04007000
04007800
0C007800
0C003800
1C003C00
3E003C00
FF81FF80
ENDCHAR

STARTCHAR Aring
ENCODING 197
SWIDTH 722 0
DWIDTH 24 0
BBX 24 32 0 0
BITMAP
003C00
006600
004200
004200
006600
003C00
000000
000000
001800
001800
001C00
003C00
002E00
006E00
004E00
004F00
00C700
008780
018380
010380
0103C0
0301C0
0201C0
07FFE0
0400E0
0400F0
0C0070
080070
180078
180038
3C007C
FF83FF
ENDCHAR

STARTCHAR AE
ENCODING 198
SWIDTH 1000 0
DWIDTH 33 0
BBX 30 24 1 0
BITMAP
007FFFF8
000EE078
0005C03C
0009C01C
0019C00C
0011C00C
0031C08C
0021C184
0061C180
0041C180
00C1C780
0081FF80
01FFC380
0101C180
0201C184
0201C184
0401C084
0C01C004
0801C00C
1801C00C
1801C01C
3001C03C
7803E07C
FE1FFFFC
ENDCHAR

STARTCHAR Ccedilla
ENCODING 199
SWIDTH 722 0
DWIDTH 24 0
BBX 20 30 2 -6
BITMAP
01FC60
078760
0E01E0
1C00E0
3C00E0
380060
780060
700020
700020
F00000
F00000
F00000
F00000
F00000
F00000
F00000
700010
780020
780020
3C0060
1C0040
0E0080
078700
01FC00
003000
007C00
001C00
001C00
003800
01F000
ENDCHAR

STARTCHAR Egrave
ENCODING 200
SWIDTH 722 0
DWIDTH 24 0
BBX 20 33 2 0
BITMAP
008000
038000
01C000
00E000
006000
003000
000800
000000
000000
FFFFE0
0E01E0
0E0070
0E0070
0E0030
0E0030
0E0430
0E0410
0E0400
0E0C00
0E1C00
0FFC00
0E1C00
0E0C00
0E0400
0E0410
0E0410
0E0010
0E0010
0E0030
0E0070
0E00F0
0F01F0
FFFFF0
ENDCHAR

STARTCHAR Eacute
ENCODING 201
SWIDTH 722 0
DWIDTH 24 0
BBX 20 33 2 0
BITMAP
000400
000E00
001C00
003800
003000
006000
008000
000000
000000
FFFFE0
0E01E0
0E0070
0E0070
0E0030
0E0030
0E0430
0E0410
0E0400
0E0C00
0E1C00
0FFC00
0E1C00
0E0C00
0E0400
0E0410
0E0410
0E0010
0E0010
0E0030
0E0070
0E00F0
0F01F0
FFFFF0
ENDCHAR

STARTCHAR Ecircumflex
ENCODING 202
SWIDTH 722 0
DWIDTH 24 0
BBX 20 32 2 0
BITMAP
007000
00F000
00D800
018C00
030600
000000
000000
000000
FFFFE0
0E01E0
0E0070
0E0070
0E0030
0E0030
0E0430
0E0410
0E0400
0E0C00
0E1C00
0FFC00
0E1C00
0E0C00
0E0400
0E0410
0E0410
0E0010
0E0010
0E0030
0E0070
0E00F0
0F01F0
FFFFF0
ENDCHAR

STARTCHAR Edieresis
ENCODING 203
SWIDTH 722 0
DWIDTH 24 0
BBX 20 30 2 0
BITMAP
038E00
038E00
038E00
000000
000000
000000
FFFFE0
0E01E0
0E0060
0E0060
0E0030
0E0030
0E0430
0E0410
0E0400
0E0C00
0E1C00
0FFC00
0E1C00
0E0C00
0E0400
0E0410
0E0410
0E0010
0E0030
0E0030
0E0070
0E00F0
0F03F0
FFFFF0
ENDCHAR

STARTCHAR Igrave
ENCODING 204
SWIDTH 407 0
DWIDTH 13 0
BBX 11 33 1 0
BITMAP
1000
7000
3800
1C00
0C00
0600
0100
0000
0000
FFE0
0E00
0E00
0E00
0E00
0E00
0E00
0E00
0E00
0E00
0E00
0E00
0E00
0E00
0E00
0E00
0E00
0E00
0E00
0E00
0E00
0E00
0F00
FFE0
ENDCHAR

STARTCHAR Iacute
ENCODING 205
SWIDTH 407 0
DWIDTH 13 0
BBX 11 33 1 0
BITMAP
0080
01C0
0380
0700
0600
0C00
1000
0000
0000
FFE0
0E00
0E00
0E00
0E00
0E00
0E00
0E00
0E00
0E00
0E00
0E00
0E00
0E00
0E00
0E00
0E00
0E00
0E00
0E00
0E00
0E00
0F00
FFE0
ENDCHAR

STARTCHAR Icircumflex
ENCODING 206
SWIDTH 407 0
DWIDTH 13 0
BBX 11 32 1 0
BITMAP
0E00
1E00
1B00
3180
60C0
0000
0000
0000
FFE0
0E00
0E00
0E00
0E00
0E00
0E00
0E00
0E00
0E00
0E00
0E00
0E00
0E00
0E00
0E00
0E00
0E00
0E00
0E00
0E00
0E00
0F00
FFE0
ENDCHAR

STARTCHAR Idieresis
ENCODING 207
SWIDTH 407 0
DWIDTH 13 0
BBX 11 30 1 0
BITMAP
71C0
71C0
71C0
0000
0000
0000
FFE0
0E00
0E00
0E00
0E00
0E00
0E00
0E00
0E00
0E00
0E00
0E00
0E00
0E00
0E00
0E00
0E00
0E00
0E00
0E00
0E00
0E00
0F00
FFE0
ENDCHAR

STARTCHAR Gbreve
ENCODING 208
SWIDTH 778 0
DWIDTH 26 0
BBX 23 31 2 0
BITMAP
010100
018300
00FF00
00FE00
003800
000000
000000
00FC20
038760
0E01F0
1C00F0
3C0070
380070
780030
700030
F00010
F00000
F00000
F00000
F00000
F007FE
F00070
F00070
700070
780070
380070
3800F0
1C00D0
0E01B0
038710
00FC10
ENDCHAR

STARTCHAR Ntilde
ENCODING 209
SWIDTH 815 0
DWIDTH 27 0
BBX 25 31 1 0
BITMAP
00004000
00F84000
00FF8000
010F0000
00000000
00000000
00000000
FC00FF80
1E003E00
0F001C00
0F800800
0B800800
0BC00800
09E00800
08F00800
08F00800
08780800
083C0800
081E0800
081E0800
080F0800
08078800
08038800
0803C800
0801E800
0800F800
08007800
1C007800
1C003800
7F001800
FF801800
ENDCHAR

STARTCHAR Ograve
ENCODING 210
SWIDTH 778 0
DWIDTH 26 0
BBX 22 32 2 0
BITMAP
018000
01C000
00E000
007000
003000
000800
000400
000000
01FE00
078780
0E01C0
1C00E0
3C0070
380070
780078
700038
F0003C
F0003C
F0003C
F0003C
F0003C
F0003C
F0003C
F0003C
700038
780078
380070
3C0070
1C00E0
0E01C0
078700
01FC00
ENDCHAR

STARTCHAR Oacute
ENCODING 211
SWIDTH 778 0
DWIDTH 26 0
BBX 22 32 2 0
BITMAP
000600
000E00
001C00
003800
003000
004000
004000
000000
01FE00
078780
0E01C0
1C00E0
3C0070
380070
780078
700038
F0003C
F0003C
F0003C
F0003C
F0003C
F0003C
F0003C
F0003C
700038
780078
380070
3C0070
1C00E0
0E01C0
078700
01FC00
ENDCHAR

STARTCHAR Ocircumflex
ENCODING 212
SWIDTH 778 0
DWIDTH 26 0
BBX 22 32 2 0
BITMAP
003000
007800
006800
00CC00
018600
010300
000000
000000
01FE00
078780
0E01C0
1C00E0
3C0070
380070
780078
700038
F0003C
F0003C
F0003C
F0003C
F0003C
F0003C
F0003C
F0003C
700038
780078
380070
3C0070
1C00E0
0E01C0
078700
01FC00
ENDCHAR

STARTCHAR Otilde
ENCODING 213
SWIDTH 778 0
DWIDTH 26 0
BBX 22 31 2 0
BITMAP
000100
01F100
03FF00
023E00
000000
000000
000000
01FE00
078780
0E01C0
1C00E0
3C0070
380070
780078
700038
F0003C
F0003C
F0003C
F0003C
F0003C
F0003C
F0003C
F0003C
700038
780078
380070
3C0070
1C00E0
0E01C0
078700
01FC00
ENDCHAR

STARTCHAR Odieresis
ENCODING 214
SWIDTH 778 0
DWIDTH 26 0
BBX 22 30 2 0
BITMAP
01C700
01C700
01C700
000000
000000
000000
00FE00
038380
0F01C0
1E00E0
3C0070
380078
780038
780038
F8003C
F0003C
F0003C
F0003C
F0003C
F0003C
F0003C
F8003C
780038
780038
380070
3C0070
1E00E0
0F01C0
038780
00FE00
ENDCHAR

STARTCHAR multiply
ENCODING 215
SWIDTH 606 0
DWIDTH 20 0
BBX 16 16 2 3
BITMAP
C003
E007
700E
381C
1C38
0E70
07E0
03C0
03C0
0760
0E70
1C38
381C
700E
E007
4002
ENDCHAR

STARTCHAR Oslash
ENCODING 216
SWIDTH 778 0
DWIDTH 26 0
BBX 22 24 2 0
BITMAP
01FE0C
078798
0E01D0
1C00E0
380070
3800B8
780138
700238
F0043C
F00C3C
F0183C
F0103C
F0203C
F0403C
F0803C
F1003C
720038
7C0078
3C0070
1C00F0
3C00E0
2E01C0
478780
81FE00
ENDCHAR

STARTCHAR Ugrave
ENCODING 217
SWIDTH 815 0
DWIDTH 27 0
BBX 26 33 1 0
BITMAP
00200000
00700000
00700000
00380000
001C0000
00040000
00020000
00000000
00000000
FFE07FC0
0E001E00
0E000C00
0E000C00
0E000C00
0E000C00
0E000C00
0E000C00
0E000C00
0E000C00
0E000C00
0E000C00
0E000C00
0E000C00
0E000C00
0E000C00
0E000C00
0E000C00
0F000800
0F001800
07803800
03C07000
01FFC000
003F0000
ENDCHAR

STARTCHAR Uacute
ENCODING 218
SWIDTH 815 0
DWIDTH 27 0
BBX 26 33 1 0
BITMAP
00010000
00038000
00078000
00070000
000C0000
00180000
00300000
00000000
00000000
FFE07FC0
0E001E00
0E000C00
0E000C00
0E000C00
0E000C00
0E000C00
0E000C00
0E000C00
0E000C00
0E000C00
0E000C00
0E000C00
0E000C00
0E000C00
0E000C00
0E000C00
0E000C00
0F000800
0F001800
07803800
03C07000
01FFC000
003F0000
ENDCHAR

STARTCHAR Ucircumflex
ENCODING 219
SWIDTH 815 0
DWIDTH 27 0
BBX 26 32 1 0
BITMAP
001C0000
001E0000
00360000
00630000
00C08000
00000000
00000000
00000000
FFE07FC0
0E001E00
0E000C00
0E000C00
0E000C00
0E000C00
0E000C00
0E000C00
0E000C00
0E000C00
0E000C00
0E000C00
0E000C00
0E000C00
0E000C00
0E000C00
0E000C00
0E000C00
0F000800
0F001800
07803800
03C07000
01FFC000
003F0000
ENDCHAR

STARTCHAR Udieresis
ENCODING 220
SWIDTH 815 0
DWIDTH 27 0
BBX 26 30 1 0
BITMAP
00E38000
00E38000
00E38000
00000000
00000000
00000000
FFE0FFC0
0E001E00
0E000C00
0E000C00
0E000C00
0E000C00
0E000C00
0E000C00
0E000C00
0E000C00
0E000C00
0E000C00
0E000C00
0E000C00
0E000C00
0E000C00
0E000C00
0E000C00
0F000800
0F001800
07803800
03C0F000
01FFC000
007F0000
ENDCHAR

STARTCHAR Idotaccent
ENCODING 221
SWIDTH 407 0
DWIDTH 13 0
BBX 11 30 1 0
BITMAP
0E00
0E00
0E00
0000
0000
0000
FFE0
0E00
0E00
0E00
0E00
0E00
0E00
0E00
0E00
0E00
0E00
0E00
0E00
0E00
0E00
0E00
0E00
0E00
0E00
0E00
0E00
0E00
0F00
FFE0
ENDCHAR

STARTCHAR Scedilla
ENCODING 222
SWIDTH 630 0
DWIDTH 21 0
BBX 17 30 2 -6
BITMAP
0FC300
387700
601F00
600F00
C00700
C00300
C00300
E00300
F00100
FE0000
7FE000
3FFC00
0FFE00
00FF00
000F80
800780
800380
C00180
C00180
E00180
F00300
F80600
CE1C00
83F000
01C000
01E000
006000
006000
01E000
07C000
ENDCHAR

STARTCHAR germandbls
ENCODING 223
SWIDTH 574 0
DWIDTH 19 0
BBX 17 24 1 0
BITMAP
03F800
071C00
0E0E00
0C0700
1C0700
1C0700
1C0700
1C0600
1C0C00
1C7800
1C3800
1C0E00
1C0700
1C0380
1C0380
1C0380
1C0380
1C0380
1C0380
1C4380
1CE700
1CE700
1CCE00
FE7800
ENDCHAR

STARTCHAR agrave
ENCODING 224
SWIDTH 556 0
DWIDTH 18 0
BBX 16 25 2 0
BITMAP
0C00
0E00
0F00
0700
0180
00C0
0020
0000
0000
0FE0
3070
6038
7038
7038
7038
00F8
07B8
3838
7038
6038
E038
E078
E0D8
7F9F
3E0E
ENDCHAR

STARTCHAR aacute
ENCODING 225
SWIDTH 556 0
DWIDTH 18 0
BBX 16 25 2 0
BITMAP
0030
0070
00F0
01C0
0180
0300
0400
0000
0000
0FE0
3070
6038
7038
7038
7038
00F8
07B8
3838
7038
6038
E038
E078
E0D8
7F9F
3E0E
ENDCHAR

STARTCHAR acircumflex
ENCODING 226
SWIDTH 556 0
DWIDTH 18 0
BBX 16 25 2 0
BITMAP
0180
03C0
03C0
0660
0C30
1818
0000
0000
0000
0FE0
3070
6038
7038
7038
7038
00F8
07B8
3838
7038
6038
E038
E078
E0D8
7F9F
3E0E
ENDCHAR

STARTCHAR atilde
ENCODING 227
SWIDTH 556 0
DWIDTH 18 0
BBX 16 23 2 0
BITMAP
0F84
1FF8
21F0
0000
0000
0000
0000
0FE0
3070
6038
7038
7038
7038
00F8
07B8
3838
7038
6038
E038
E078
E0D8
7F9F
3E0E
ENDCHAR

STARTCHAR adieresis
ENCODING 228
SWIDTH 556 0
DWIDTH 18 0
BBX 17 22 1 0
BITMAP
0E3800
0E3800
0E1800
000000
000000
000000
0FE000
387800
303800
781C00
781C00
301C00
007C00
07DC00
1C1C00
701C00
701C00
E03C00
E03C00
F06C00
7D8F80
1E0700
ENDCHAR

STARTCHAR aring
ENCODING 229
SWIDTH 556 0
DWIDTH 18 0
BBX 16 25 1 0
BITMAP
03C0
0620
0430
0430
0660
03C0
0000
0000
0000
0FE0
3870
6038
7018
7018
7018
0078
07D8
1C18
7018
6038
E038
E038
E05C
7B9F
1E06
ENDCHAR

STARTCHAR ae
ENCODING 230
SWIDTH 796 0
DWIDTH 26 0
BBX 23 16 2 0
BITMAP
0FE3E0
30F638
303C18
78380C
78380C
30380E
00F81E
07FFFE
3C3800
703800
E03800
E03802
E07C04
E0DC0C
798F38
3F03E0
ENDCHAR

STARTCHAR ccedilla
ENCODING 231
SWIDTH 444 0
DWIDTH 15 0
BBX 13 22 1 -6
BITMAP
07C0
1C70
3838
7078
7078
E030
E000
E000
E000
E000
E000
7008
7008
3810
1C70
0FC0
0300
03C0
00C0
00C0
03C0
0F00
ENDCHAR

STARTCHAR egrave
ENCODING 232
SWIDTH 500 0
DWIDTH 17 0
BBX 14 25 1 0
BITMAP
1800
1C00
1E00
0E00
0300
0180
00C0
0000
0000
0FC0
1860
3030
7038
6018
E01C
E03C
FFFC
E000
E000
E000
7004
7008
3818
1C70
0FC0
ENDCHAR

STARTCHAR eacute
ENCODING 233
SWIDTH 500 0
DWIDTH 17 0
BBX 14 25 1 0
BITMAP
0040
00E0
01E0
01C0
0300
0600
0C00
0000
0000
0FC0
1860
3030
7038
6018
E01C
E03C
FFFC
E000
E000
E000
7004
7008
3818
1C70
0FC0
ENDCHAR

STARTCHAR ecircumflex
ENCODING 234
SWIDTH 500 0
DWIDTH 17 0
BBX 14 25 1 0
BITMAP
0300
0300
0780
0CC0
1840
3020
0000
0000
0000
0FC0
1860
3030
7038
6018
E01C
E03C
FFFC
E000
E000
E000
7004
7008
3818
1C70
0FC0
ENDCHAR

STARTCHAR edieresis
ENCODING 235
SWIDTH 500 0
DWIDTH 17 0
BBX 14 22 1 0
BITMAP
1870
3C70
1870
0000
0000
0000
0FC0
1C70
3038
7018
601C
E01C
E01C
FFFC
E000
E000
E000
7004
700C
3818
1E30
0FE0
ENDCHAR

STARTCHAR igrave
ENCODING 236
SWIDTH 315 0
DWIDTH 10 0
BBX 9 25 1 0
BITMAP
4000
E000
7000
3800
1800
0C00
0200
0000
0000
7C00
FC00
1C00
1C00
1C00
1C00
1C00
1C00
1C00
1C00
1C00
1C00
1C00
1C00
1C00
FF80
ENDCHAR

STARTCHAR iacute
ENCODING 237
SWIDTH 315 0
DWIDTH 10 0
BBX 9 25 1 0
BITMAP
0100
0700
0700
0E00
1C00
1000
2000
0000
0000
7C00
FC00
1C00
1C00
1C00
1C00
1C00
1C00
1C00
1C00
1C00
1C00
1C00
1C00
1C00
FF80
ENDCHAR

STARTCHAR icircumflex
ENCODING 238
SWIDTH 315 0
DWIDTH 10 0
BBX 9 24 1 0
BITMAP
1C00
3C00
3600
6300
C180
0000
0000
0000
7C00
FC00
1C00
1C00
1C00
1C00
1C00
1C00
1C00
1C00
1C00
1C00
1C00
1C00
1C00
FF80
ENDCHAR

STARTCHAR idieresis
ENCODING 239
SWIDTH 315 0
DWIDTH 10 0
BBX 9 22 1 0
BITMAP
E380
E380
E380
0000
0000
0000
7C00
FC00
1C00
1C00
1C00
1C00
1C00
1C00
1C00
1C00
1C00
1C00
1C00
1C00
1C00
7F80
ENDCHAR

STARTCHAR gbreve
ENCODING 240
SWIDTH 537 0
DWIDTH 18 0
BBX 17 30 1 -6
BITMAP
080C00
0C0800
0FF800
07F000
03E000
000000
000000
000000
000300
0FEF80
383980
381800
701C00
701C00
701C00
701800
383800
0C7000
1FC000
600000
600000
7FE000
3FFC00
0FFE00
300E00
600600
E00600
600C00
781800
0FE000
ENDCHAR

STARTCHAR ntilde
ENCODING 241
SWIDTH 611 0
DWIDTH 20 0
BBX 19 23 1 0
BITMAP
07C200
07F200
09FC00
087800
000000
000000
000000
F87800
3DFC00
1F0E00
1E0700
1C0700
1C0700
1C0700
1C0700
1C0700
1C0700
1C0700
1C0700
1C0700
1C0700
1C0700
7F1FE0
ENDCHAR

STARTCHAR ograve
ENCODING 242
SWIDTH 500 0
DWIDTH 17 0
BBX 14 25 1 0
BITMAP
0800
1C00
1E00
0600
0300
0180
0080
0000
0000
0FC0
1860
3030
7038
6018
E01C
E01C
E01C
E01C
E01C
E01C
6018
7038
3030
1860
0FC0
ENDCHAR

STARTCHAR oacute
ENCODING 243
SWIDTH 500 0
DWIDTH 17 0
BBX 14 25 1 0
BITMAP
0040
00E0
01E0
0180
0300
0600
0400
0000
0000
0FC0
1860
3030
7038
6018
E01C
E01C
E01C
E01C
E01C
E01C
6018
7038
3030
1860
0FC0
ENDCHAR

STARTCHAR ocircumflex
ENCODING 244
SWIDTH 500 0
DWIDTH 17 0
BBX 14 25 1 0
BITMAP
0300
0300
0780
0CC0
0840
1020
0000
0000
0000
0FC0
1860
3030
7038
6018
E01C
E01C
E01C
E01C
E01C
E01C
6018
7038
3030
1860
0FC0
ENDCHAR

STARTCHAR otilde
ENCODING 245
SWIDTH 500 0
DWIDTH 17 0
BBX 14 24 1 0
BITMAP
0010
1F10
3FF0
23E0
2000
0000
0000
0000
0FC0
1860
3030
7038
6018
E01C
E01C
E01C
E01C
E01C
E01C
6018
7038
3030
1860
0FC0
ENDCHAR

STARTCHAR odieresis
ENCODING 246
SWIDTH 500 0
DWIDTH 17 0
BBX 15 22 1 0
BITMAP
1C70
1C70
1C70
0000
0000
0000
0FC0
1C70
3018
701C
700C
E00E
E00E
E00E
E00E
E00E
E00E
701C
701C
3838
1C70
07C0
ENDCHAR

STARTCHAR divide
ENCODING 247
SWIDTH 606 0
DWIDTH 20 0
BBX 18 16 1 3
BITMAP
01C000
01C000
01C000
000000
000000
000000
000000
FFFFC0
FFFFC0
000000
000000
000000
000000
01C000
01C000
01C000
ENDCHAR

STARTCHAR oslash
ENCODING 248
SWIDTH 500 0
DWIDTH 17 0
BBX 14 16 1 0
BITMAP
0FCC
1868
3030
7038
6068
E0DC
E19C
E11C
E21C
E41C
EC1C
7818
7038
3030
5860
CFC0
ENDCHAR

STARTCHAR ugrave
ENCODING 249
SWIDTH 611 0
DWIDTH 20 0
BBX 18 25 2 0
BITMAP
020000
060000
070000
038000
018000
00C000
002000
000000
000000
781E00
F83E00
380E00
380E00
380E00
380E00
380E00
380E00
380E00
380E00
380E00
380E00
181E00
1C3600
0FCFC0
030000
ENDCHAR

STARTCHAR uacute
ENCODING 250
SWIDTH 611 0
DWIDTH 20 0
BBX 18 25 2 0
BITMAP
001000
003800
007000
00E000
00C000
018000
020000
000000
000000
781E00
F83E00
380E00
380E00
380E00
380E00
380E00
380E00
380E00
380E00
380E00
380E00
181E00
1C3600
0FCFC0
030000
ENDCHAR

STARTCHAR ucircumflex
ENCODING 251
SWIDTH 611 0
DWIDTH 20 0
BBX 18 24 2 0
BITMAP
01C000
01C000
036000
063000
0C1800
000000
000000
000000
781E00
F83E00
380E00
380E00
380E00
380E00
380E00
380E00
380E00
380E00
380E00
380E00
181E00
1C3600
0FCFC0
030000
ENDCHAR

STARTCHAR udieresis
ENCODING 252
SWIDTH 611 0
DWIDTH 20 0
BBX 18 22 2 0
BITMAP
0E3800
0E3800
0E3800
000000
000000
000000
781E00
F83E00
380E00
380E00
380E00
380E00
380E00
380E00
380E00
380E00
380E00
380E00
181E00
1C3600
0FCFC0
030000
ENDCHAR

STARTCHAR dotlessi
ENCODING 253
SWIDTH 315 0
DWIDTH 10 0
BBX 9 16 1 0
BITMAP
3C00
FC00
1C00
1C00
1C00
1C00
1C00
1C00
1C00
1C00
1C00
1C00
1C00
1C00
1C00
FF80
ENDCHAR

STARTCHAR scedilla
ENCODING 254
SWIDTH 463 0
DWIDTH 15 0
BBX 12 22 2 -6
BITMAP
1F60
61E0
40E0
C060
C020
E000
7C00
7FC0
1FE0
03F0
8070
C030
C030
E020
F0E0
CF80
0600
0700
0380
0380
0700
1E00
ENDCHAR

STARTCHAR ydieresis
ENCODING 255
SWIDTH 537 0
DWIDTH 18 0
BBX 17 29 1 -6
BITMAP
0E3800
0E3800
0E3800
000000
000000
000000
000000
FF1F80
780700
380600
1C0400
1C0400
0E0C00
0E0800
071800
071000
039000
03A000
03A000
01E000
01C000
00C000
008000
008000
010000
630000
E20000
E40000
780000
ENDCHAR
ENDFONT
